<svg height="512pt" viewBox="0 -16 512 512" width="512pt" xmlns="http://www.w3.org/2000/svg"><path d="m464.03125 240.851562h-416.0625c-22.308594 0-40.394531-18.085937-40.394531-40.394531 0-22.308593 18.085937-40.394531 40.394531-40.394531h416.0625c22.308594 0 40.394531 18.085938 40.394531 40.394531 0 22.308594-18.085937 40.394531-40.394531 40.394531zm0 0" fill="#f47b00"/><path d="m464.4375 160.074219c3.105469 5.71875 4.871094 12.273437 4.871094 19.238281 0 22.308594-18.085938 40.394531-40.394532 40.394531h-416.0625c-.136718 0-.273437-.007812-.410156-.007812 6.839844 12.597656 20.183594 21.152343 35.527344 21.152343h416.0625c22.308594 0 40.394531-18.085937 40.394531-40.394531 0-22.171875-17.867187-40.164062-39.988281-40.382812zm0 0" fill="#e45e00"/><path d="m482.210938 136.835938h-452.421876v-10.097657c0-65.8125 53.351563-119.164062 119.164063-119.164062h214.09375c65.8125 0 119.164063 53.351562 119.164063 119.164062zm0 0" fill="#ffc885"/><path d="m482.210938 126.738281c0-65.8125-53.351563-119.164062-119.164063-119.164062h-57.5625c49.285156 0 91.578125 29.921875 109.710937 72.59375 5.578126 13.121093-4.214843 27.667969-18.472656 27.667969h-365.433594c-.980468 6.15625-1.5 12.46875-1.5 18.902343v10.097657h452.421876zm0 0" fill="#edaf6b"/><path d="m29.789062 362.035156h452.421876v49.484375c0 33.460938-27.128907 60.589844-60.59375 60.589844h-331.234376c-33.464843 0-60.59375-27.128906-60.59375-60.589844zm0 0" fill="#ffc885"/><path d="m424.648438 362.035156v49.484375c0 33.460938-27.128907 60.589844-60.59375 60.589844h57.5625c33.464843 0 60.59375-27.128906 60.59375-60.589844v-49.484375zm0 0" fill="#edaf6b"/><path d="m29.789062 136.773438v22.515624l31.417969 19.421876c16.808594 10.390624 38.113281 10.121093 54.65625-.695313l.765625-.5c16.933594-11.074219 38.816406-11.074219 55.75 0 16.933594 11.070313 38.8125 11.070313 55.746094 0 16.933594-11.074219 38.816406-11.074219 55.746094 0 16.9375 11.070313 38.816406 11.070313 55.75 0 16.933594-11.074219 38.816406-11.074219 55.746094 0l.769531.5c16.539062 10.816406 37.84375 11.085937 54.65625.695313l31.414062-19.421876v-22.515624zm0 0" fill="#73e014"/><path d="m437.773438 136.773438v11.257812c0 6.996094-3.621094 13.496094-9.574219 17.179688l-21.839844 13.5c-1.488281.917968-3.011719 1.75-4.5625 2.503906 15.546875 7.539062 34.046875 6.734375 48.996094-2.503906l31.417969-19.421876v-22.511718h-44.4375zm0 0" fill="#66c609"/><path d="m464.03125 362.035156h-416.0625c-22.308594 0-40.394531-18.085937-40.394531-40.394531s18.085937-40.394531 40.394531-40.394531h416.0625c22.308594 0 40.394531 18.085937 40.394531 40.394531s-18.085937 40.394531-40.394531 40.394531zm0 0" fill="#f47b00"/><path d="m464.4375 281.257812c3.105469 5.71875 4.871094 12.273438 4.871094 19.238282 0 22.3125-18.085938 40.394531-40.394532 40.394531h-416.0625c-.136718 0-.273437-.007813-.410156-.007813 6.839844 12.597657 20.183594 21.152344 35.527344 21.152344h416.0625c22.308594 0 40.394531-18.085937 40.394531-40.394531 0-22.171875-17.867187-40.164063-39.988281-40.382813zm0 0" fill="#e45e00"/><path d="m29.789062 362.035156v22.515625l31.417969 19.417969c16.808594 10.390625 38.113281 10.121094 54.65625-.695312l.765625-.5c16.933594-11.070313 38.816406-11.070313 55.75 0 16.933594 11.074218 38.8125 11.074218 55.746094 0 16.933594-11.070313 38.816406-11.070313 55.746094 0 16.9375 11.074218 38.816406 11.074218 55.75 0 16.933594-11.070313 38.816406-11.070313 55.746094 0l.769531.5c16.539062 10.816406 37.84375 11.085937 54.65625.695312l31.414062-19.417969v-22.515625zm0 0" fill="#73e014"/><path d="m437.773438 362.035156v11.253906c0 7-3.621094 13.5-9.574219 17.179688l-21.839844 13.5c-1.488281.917969-3.011719 1.75-4.5625 2.503906 15.546875 7.539063 34.046875 6.738282 48.996094-2.503906l31.417969-19.417969v-22.515625zm0 0" fill="#66c609"/><path d="m256 240.851562h-216.109375v40.394532h432.21875v-40.394532zm0 0" fill="#ffd815"/><path d="m452.609375 240.851562v13.894532c0 5.523437-4.476563 10-10 10h-402.71875v16.5h432.21875v-40.394532zm0 0" fill="#f4ba00"/><path d="m479.683594 276.308594v-30.496094c6.796875-2.339844 13.027344-6.207031 18.261718-11.441406 9.0625-9.0625 14.054688-21.105469 14.054688-33.914063 0-16.648437-8.621094-31.835937-22.261719-40.5.019531-.222656.042969-.441406.042969-.667969v-32.550781c0-69.882812-56.851562-126.738281-126.738281-126.738281h-153.664063c-4.183594 0-7.574218 3.390625-7.574218 7.574219 0 4.183593 3.390624 7.574219 7.574218 7.574219h153.667969c61.53125 0 111.589844 50.058593 111.589844 111.589843v2.464844h-437.273438v-2.464844c0-61.53125 50.0625-111.589843 111.589844-111.589843h24.871094c4.183593 0 7.574219-3.390626 7.574219-7.574219 0-4.183594-3.390626-7.574219-7.574219-7.574219h-24.871094c-69.882813 0-126.734375 56.855469-126.734375 126.738281v32.550781c0 .230469.019531.457032.042969.6875-2.960938 1.882813-5.726563 4.082032-8.207031 6.566407-9.0625 9.0625-14.054688 21.109375-14.054688 33.914062 0 20.96875 13.53125 38.828125 32.316406 45.332031v30.519532c-18.785156 6.503906-32.316406 24.363281-32.316406 45.332031 0 16.976563 8.871094 31.910156 22.21875 40.4375v49.441406c0 37.585938 30.578125 68.164063 68.164062 68.164063h331.234376c37.585937 0 68.167968-30.578125 68.167968-68.164063v-49.441406c13.34375-8.527344 22.214844-23.460937 22.214844-40.4375 0-20.96875-13.53125-38.828125-32.316406-45.332031zm-440.972656-120.410156c-.054688-.035157-.109376-.070313-.167969-.101563l-1.179688-.730469v-10.65625h437.273438v10.65625l-1.160157.714844c-.070312.042969-.140624.089844-.210937.132812l-26.453125 16.351563c-6.855469 4.242187-14.742188 6.480469-22.800781 6.480469-8.453125 0-16.65625-2.445313-23.730469-7.070313l-.765625-.5c-9.542969-6.242187-20.617187-9.539062-32.019531-9.539062s-22.472656 3.296875-32.019532 9.539062c-7.074218 4.625-15.277343 7.066407-23.730468 7.066407-8.449219 0-16.65625-2.441407-23.726563-7.066407-9.542969-6.242187-20.617187-9.539062-32.019531-9.539062-11.40625 0-22.476562 3.296875-32.019531 9.539062-7.074219 4.625-15.28125 7.066407-23.730469 7.066407s-16.65625-2.441407-23.730469-7.066407c-9.542969-6.242187-20.613281-9.539062-32.015625-9.539062-11.40625 0-22.476562 3.296875-32.023437 9.539062l-.765625.5c-7.070313 4.625-15.277344 7.070313-23.730469 7.070313-8.058594 0-15.941406-2.242188-22.796875-6.480469zm8.753906 92.515624c.167968 0 .335937.011719.503906.011719h277.585938c4.183593 0 7.574218-3.390625 7.574218-7.574219 0-4.183593-3.390625-7.574218-7.574218-7.574218h-277.585938c-18.097656 0-32.820312-14.722656-32.820312-32.820313 0-8.761719 3.414062-17 9.613281-23.203125 2.671875-2.671875 5.8125-4.871094 9.203125-6.480468l23.257812 14.378906c9.25 5.71875 19.890625 8.742187 30.765625 8.742187 11.402344 0 22.472657-3.300781 32.019531-9.539062l.765626-.5c7.074218-4.625 15.277343-7.070313 23.730468-7.070313 8.449219 0 16.65625 2.445313 23.726563 7.070313 9.546875 6.238281 20.617187 9.535156 32.019531 9.535156s22.476562-3.296875 32.019531-9.535156c7.074219-4.625 15.28125-7.070313 23.730469-7.070313s16.65625 2.445313 23.730469 7.070313c9.542969 6.238281 20.613281 9.535156 32.019531 9.535156 11.402344 0 22.472656-3.296875 32.019531-9.535156 7.070313-4.625 15.277344-7.070313 23.726563-7.070313 8.453125 0 16.65625 2.445313 23.730468 7.070313l.765626.5c9.542968 6.238281 20.617187 9.539062 32.019531 9.539062h.003906c10.875 0 21.511719-3.023437 30.761719-8.742187l23.242187-14.371094c11.386719 5.367188 18.832031 16.878906 18.832031 29.675781 0 8.757813-3.414062 17-9.613281 23.203125-6.203125 6.199219-14.445312 9.617188-23.207031 9.617188h-103.34375c-4.179688 0-7.574219 3.390625-7.574219 7.574218 0 4.179688 3.394531 7.574219 7.574219 7.574219h103.34375c.167969 0 .335938-.011719.503906-.015625v25.273438c-.167968 0-.335937-.011719-.503906-.011719h-416.0625c-.167969 0-.335938.011719-.503906.011719zm374.152344 216.121094h-331.234376c-29.234374 0-53.019531-23.78125-53.019531-53.015625v-13.382812l19.859375 12.273437c19.222656 11.882813 43.867188 11.574219 62.789063-.800781l.761719-.496094c14.414062-9.425781 33.046874-9.425781 47.460937 0 19.453125 12.71875 44.585937 12.714844 64.035156 0 14.414063-9.425781 33.042969-9.425781 47.460938 0 19.449219 12.714844 44.585937 12.71875 64.035156 0 14.414063-9.425781 33.042969-9.425781 47.457031-.003906l.769532.503906c9.675781 6.324219 20.847656 9.5 32.027343 9.496094 10.679688 0 21.367188-2.894531 30.757813-8.699219l19.859375-12.273437v13.382812c0 29.234375-23.785157 53.015625-53.019531 53.015625zm42.414062-110.074218h-295.300781c-4.183594 0-7.574219 3.390624-7.574219 7.574218s3.390625 7.574219 7.574219 7.574219h295.300781c3.644531 0 7.191406-.421875 10.605469-1.195313v11.914063l-27.824219 17.199219c-14.25 8.804687-32.511719 8.574218-46.523438-.585938l-.773437-.507812c-19.453125-12.71875-44.585937-12.71875-64.035156 0-14.414063 9.425781-33.046875 9.425781-47.460938 0-19.449219-12.714844-44.585937-12.714844-64.035156 0-14.414063 9.425781-33.046875 9.425781-47.460937 0-19.449219-12.71875-44.585938-12.71875-64.042969.003906l-.761719.5c-14.019531 9.164062-32.28125 9.394531-46.527344.589844l-27.824218-17.199219v-11.914063c3.414062.773438 6.957031 1.195313 10.605468 1.195313h85.164063c4.183593 0 7.574219-3.390625 7.574219-7.574219s-3.390626-7.574218-7.574219-7.574218h-85.167969c-18.097656 0-32.820312-14.722657-32.820312-32.820313s14.722656-32.820313 32.820312-32.820313h416.0625c18.097656 0 32.820312 14.722657 32.820312 32.820313s-14.722656 32.820313-32.820312 32.820313zm0 0"/></svg>