<?xml version="1.0"?>
<svg xmlns="http://www.w3.org/2000/svg" id="Layer_3" enable-background="new 0 0 64 64" height="512px" viewBox="0 0 64 64" width="512px" class=""><g><g><g><path d="m58 28v34h-52v-34" fill="#669e4f" data-original="#669E4F" class=""/></g><g><path d="m6 28v23.417c3.99 1.661 8.383 2.583 13 2.583 16.11 0 29.515-11.196 32.412-26z" fill="#78b75b" data-original="#78B75B" class=""/></g><g><path d="m40 62v-16h-16v16" fill="#976947" data-original="#976947" class=""/></g><g><path d="m24 46h8v16h-8z" fill="#c18e59" data-original="#C18E59" class=""/></g><g><path d="m44 32h10v26h-10z" fill="#ebf7fe" data-original="#EBF7FE" class=""/></g><g><path d="m10 32h10v26h-10z" fill="#ebf7fe" data-original="#EBF7FE" class=""/></g><g><path d="m24 34h16v8h-16z" fill="#ebf7fe" data-original="#EBF7FE" class=""/></g><g><path d="m2 20h60v8h-60z" fill="#4d5d7a" data-original="#4D5D7A" class=""/></g><g><circle cx="32" cy="16" fill="#c7e2fc" r="14" data-original="#C7E2FC" class=""/></g><g><path d="m42 11.5c0-2.429-.605-4.715-1.661-6.726-2.331-1.735-5.21-2.774-8.339-2.774-7.732 0-14 6.268-14 14 0 3.129 1.039 6.008 2.774 8.339 2.011 1.056 4.297 1.661 6.726 1.661 8.008 0 14.5-6.492 14.5-14.5z" fill="#ebf7fe" data-original="#EBF7FE" class=""/></g><g><path d="m38 20h-12c-1.657 0-3-1.343-3-3 0-1.657 1.343-3 3-3h12c1.657 0 3 1.343 3 3 0 1.657-1.343 3-3 3z" fill="#c66b60" data-original="#C66B60"/></g><g><path d="m39 24h-14c-1.105 0-2-.895-2-2v-2h18v2c0 1.105-.895 2-2 2z" fill="#c18e59" data-original="#C18E59" class=""/></g><g><path d="m41 14h-18c0-3.314 2.686-6 6-6h6c3.314 0 6 2.686 6 6z" fill="#c18e59" data-original="#C18E59" class=""/></g><g><path d="m58 63h-52c-.552 0-1-.447-1-1v-34h2v33h50v-33h2v34c0 .553-.448 1-1 1z" data-original="#000000" class="active-path" style="fill:#000000"/></g><g><path d="m39 25h-14c-1.654 0-3-1.346-3-3v-2c0-.553.448-1 1-1h18c.552 0 1 .447 1 1v2c0 1.654-1.346 3-3 3zm-15-4v1c0 .552.449 1 1 1h14c.551 0 1-.448 1-1v-1z" data-original="#000000" class="active-path" style="fill:#000000"/></g><g><path d="m41 15h-18c-.552 0-1-.447-1-1 0-3.859 3.14-7 7-7h6c3.86 0 7 3.141 7 7 0 .553-.448 1-1 1zm-16.899-2h15.799c-.465-2.279-2.485-4-4.9-4h-6c-2.415 0-4.435 1.721-4.899 4z" data-original="#000000" class="active-path" style="fill:#000000"/></g><g><path d="m24 16h16v2h-16z" data-original="#000000" class="active-path" style="fill:#000000"/></g><g><path d="m32 31c-8.271 0-15-6.729-15-15s6.729-15 15-15 15 6.729 15 15-6.729 15-15 15zm0-28c-7.168 0-13 5.832-13 13s5.832 13 13 13 13-5.832 13-13-5.832-13-13-13z" data-original="#000000" class="active-path" style="fill:#000000"/></g><g><path d="m27 10h2v2h-2z" data-original="#000000" class="active-path" style="fill:#000000"/></g><g><path d="m31 10h2v2h-2z" data-original="#000000" class="active-path" style="fill:#000000"/></g><g><path d="m35 10h2v2h-2z" data-original="#000000" class="active-path" style="fill:#000000"/></g><g><path d="m62 29h-23v-2h22v-6h-16v-2h17c.552 0 1 .447 1 1v8c0 .553-.448 1-1 1z" data-original="#000000" class="active-path" style="fill:#000000"/></g><g><path d="m25 29h-23c-.552 0-1-.447-1-1v-8c0-.553.448-1 1-1h17v2h-16v6h22z" data-original="#000000" class="active-path" style="fill:#000000"/></g><g><path d="m41 62h-2v-15h-14v15h-2v-16c0-.553.448-1 1-1h16c.552 0 1 .447 1 1z" data-original="#000000" class="active-path" style="fill:#000000"/></g><g><path d="m31 46h2v16h-2z" data-original="#000000" class="active-path" style="fill:#000000"/></g><g><path d="m34 53h2v2h-2z" data-original="#000000" class="active-path" style="fill:#000000"/></g><g><path d="m28 53h2v2h-2z" data-original="#000000" class="active-path" style="fill:#000000"/></g><g><path d="m54 59h-10c-.552 0-1-.447-1-1v-26c0-.553.448-1 1-1h10c.552 0 1 .447 1 1v26c0 .553-.448 1-1 1zm-9-2h8v-24h-8z" data-original="#000000" class="active-path" style="fill:#000000"/></g><g><path d="m20 59h-10c-.552 0-1-.447-1-1v-26c0-.553.448-1 1-1h10c.552 0 1 .447 1 1v26c0 .553-.448 1-1 1zm-9-2h8v-24h-8z" data-original="#000000" class="active-path" style="fill:#000000"/></g><g><path d="m40 43h-16c-.552 0-1-.447-1-1v-8c0-.553.448-1 1-1h16c.552 0 1 .447 1 1v8c0 .553-.448 1-1 1zm-15-2h14v-6h-14z" data-original="#000000" class="active-path" style="fill:#000000"/></g><g><path d="m12 41h5v1.999h-5z" transform="matrix(.6 -.8 .8 .6 -27.803 28.408)" data-original="#000000" class="active-path" style="fill:#000000"/></g><g><path d="m12 47h5v1.999h-5z" transform="matrix(.6 -.8 .8 .6 -32.603 30.809)" data-original="#000000" class="active-path" style="fill:#000000"/></g><g><path d="m46 41h5v1.999h-5z" transform="matrix(.6 -.8 .8 .6 -14.197 55.612)" data-original="#000000" class="active-path" style="fill:#000000"/></g><g><path d="m46 47h5v1.999h-5z" transform="matrix(.6 -.8 .8 .6 -18.998 58.013)" data-original="#000000" class="active-path" style="fill:#000000"/></g></g></g> </svg>
